<svg width="61" height="42" viewBox="0 0 61 42" fill="none" xmlns="http://www.w3.org/2000/svg">
<path d="M28.1021 16.6735C30.4147 16.3318 32.5931 15.7795 34.6375 15.0164C36.6819 14.2534 38.542 13.3138 40.2177 12.1977V6.8335H5.02722V12.1977C6.70295 13.3138 8.56302 14.2534 10.6074 15.0164C12.6518 15.7795 14.8303 16.3318 17.1428 16.6735C17.7126 16.0129 18.4834 15.4891 19.4553 15.1018C20.4273 14.7146 21.483 14.521 22.6225 14.521C23.762 14.521 24.8177 14.7146 25.7896 15.1018C26.7615 15.4891 27.5324 16.0129 28.1021 16.6735ZM28.6049 20.0902C28.2027 20.9557 27.4486 21.6675 26.3426 22.2256C25.2366 22.7836 23.9966 23.0627 22.6225 23.0627C21.2484 23.0627 20.0083 22.7836 18.9023 22.2256C17.7963 21.6675 17.0423 20.9557 16.6401 20.0902C12.4172 19.5207 8.54627 18.3704 5.02722 16.6393V34.1668H40.2177V16.6393C36.6987 18.3704 32.8277 19.5207 28.6049 20.0902ZM2.51361 3.41683H42.7313C43.4351 3.41683 44.03 3.58197 44.516 3.91225C45.002 4.24253 45.2449 4.64683 45.2449 5.12516V35.8752C45.2449 36.3535 45.002 36.7578 44.516 37.0881C44.03 37.4184 43.4351 37.5835 42.7313 37.5835H2.51361C1.8098 37.5835 1.21491 37.4184 0.728946 37.0881C0.242982 36.7578 0 36.3535 0 35.8752V5.12516C0 4.64683 0.242982 4.24253 0.728946 3.91225C1.21491 3.58197 1.8098 3.41683 2.51361 3.41683Z" fill="#CB6F04"/>
</svg>
