<svg width="61" height="48" viewBox="0 0 61 48" fill="none" xmlns="http://www.w3.org/2000/svg">
<path d="M47.6077 15.6665H50.2722C51.1771 15.6665 52.0149 15.8428 52.7858 16.1953C53.5566 16.5478 54.1682 17.0243 54.6207 17.6248C55.0731 18.2254 55.2994 18.8782 55.2994 19.5832V27.4165C55.2994 28.1215 55.0731 28.7743 54.6207 29.3748C54.1682 29.9754 53.5566 30.4519 52.7858 30.8044C52.0149 31.1569 51.1771 31.3332 50.2722 31.3332H47.6077C47.2056 33.8921 46.066 36.2159 44.1892 38.3048C42.3124 40.3937 39.9496 42.0257 37.1008 43.2007C34.1516 44.4279 31.0012 45.0415 27.6497 45.0415V41.1248C30.3644 41.1248 32.8947 40.5896 35.2408 39.519C37.5198 38.4746 39.3296 37.0646 40.6702 35.289C42.0443 33.4612 42.7313 31.4898 42.7313 29.3748V17.6248C42.7313 15.5098 42.0443 13.5384 40.6702 11.7107C39.3296 9.93512 37.5198 8.52512 35.2408 7.48067C32.8947 6.41011 30.3644 5.87484 27.6497 5.87484C24.935 5.87484 22.4046 6.41011 20.0586 7.48067C17.7796 8.52512 15.9698 9.93512 14.6292 11.7107C13.2551 13.5384 12.568 15.5098 12.568 17.6248V31.3332H5.02722C4.12232 31.3332 3.28445 31.1569 2.51361 30.8044C1.74277 30.4519 1.13112 29.9754 0.678674 29.3748C0.226225 28.7743 0 28.1215 0 27.4165V19.5832C0 18.8782 0.226225 18.2254 0.678674 17.6248C1.13112 17.0243 1.74277 16.5478 2.51361 16.1953C3.28445 15.8428 4.12232 15.6665 5.02722 15.6665H7.69164C8.09382 13.1076 9.23332 10.7837 11.1101 8.69484C12.987 6.60595 15.3498 4.974 18.1985 3.799C21.1478 2.57178 24.2982 1.95817 27.6497 1.95817C31.0012 1.95817 34.1516 2.57178 37.1008 3.799C39.9496 4.974 42.3124 6.60595 44.1892 8.69484C46.066 10.7837 47.2056 13.1076 47.6077 15.6665ZM5.02722 19.5832V27.4165H7.54082V19.5832H5.02722ZM47.7585 19.5832V27.4165H50.2722V19.5832H47.7585ZM16.992 30.9023L19.6564 27.5732C22.103 28.7743 24.7674 29.3748 27.6497 29.3748C30.532 29.3748 33.1964 28.7743 35.643 27.5732L38.3074 30.9023C36.7322 31.6857 35.0397 32.2797 33.2299 32.6844C31.4201 33.0891 29.56 33.2915 27.6497 33.2915C25.7393 33.2915 23.8793 33.0891 22.0695 32.6844C20.2597 32.2797 18.5672 31.6857 16.992 30.9023Z" fill="#CB6F04"/>
</svg>
