<svg width="61" height="55" viewBox="0 0 61 55" fill="none" xmlns="http://www.w3.org/2000/svg">
<path d="M20.0083 38.25C19.8072 39.51 19.2961 40.6575 18.475 41.6925C17.6539 42.7275 16.6149 43.5375 15.3581 44.1225C14.1013 44.7075 12.7524 45 11.3112 45C9.8701 45 8.52113 44.7075 7.26433 44.1225C6.00752 43.5375 4.96856 42.7275 4.14745 41.6925C3.32634 40.6575 2.81524 39.51 2.61415 38.25H0V11.25C0 10.62 0.242982 10.0875 0.728946 9.6525C1.21491 9.2175 1.8098 9 2.51361 9H37.7041C38.4079 9 39.0028 9.2175 39.4888 9.6525C39.9747 10.0875 40.2177 10.62 40.2177 11.25V15.75H47.7585L55.2994 24.885V38.25H50.1716C49.9705 39.51 49.4594 40.6575 48.6383 41.6925C47.8172 42.7275 46.7782 43.5375 45.5214 44.1225C44.2646 44.7075 42.9157 45 41.4745 45C40.0334 45 38.6844 44.7075 37.4276 44.1225C36.1708 43.5375 35.1319 42.7275 34.3107 41.6925C33.4896 40.6575 32.9785 39.51 32.7774 38.25H20.0083ZM35.1905 13.5H5.02722V31.635C5.83157 30.885 6.77836 30.3 7.86759 29.88C8.95682 29.46 10.1047 29.25 11.3112 29.25C13.054 29.25 14.6376 29.6625 16.062 30.4875C17.4863 31.3125 18.5504 32.4 19.2542 33.75H33.5315C33.9337 32.97 34.4867 32.265 35.1905 31.635V13.5ZM40.2177 27H50.2722V26.37L45.2449 20.25H40.2177V27ZM41.4745 40.5C42.2789 40.5 43.0078 40.29 43.6614 39.87C44.3149 39.45 44.7757 38.91 45.0438 38.25C45.1779 37.89 45.2449 37.515 45.2449 37.125C45.2449 36.195 44.8763 35.4 44.139 34.74C43.4016 34.08 42.5135 33.75 41.4745 33.75C40.4356 33.75 39.5474 34.08 38.8101 34.74C38.0728 35.4 37.7041 36.195 37.7041 37.125C37.7041 37.515 37.7711 37.89 37.9052 38.25C38.1733 38.91 38.6341 39.45 39.2877 39.87C39.9412 40.29 40.6702 40.5 41.4745 40.5ZM15.0816 37.125C15.0816 36.195 14.713 35.4 13.9757 34.74C13.2383 34.08 12.3502 33.75 11.3112 33.75C10.2723 33.75 9.38414 34.08 8.64681 34.74C7.90949 35.4 7.54082 36.195 7.54082 37.125C7.54082 37.515 7.60785 37.89 7.74191 38.25C8.01003 38.91 8.47086 39.45 9.1244 39.87C9.77793 40.29 10.5069 40.5 11.3112 40.5C12.1156 40.5 12.8445 40.29 13.4981 39.87C14.1516 39.45 14.6124 38.91 14.8806 38.25C15.0146 37.89 15.0816 37.515 15.0816 37.125Z" fill="#CB6F04"/>
</svg>
