<svg width="61" height="55" viewBox="0 0 61 55" fill="none" xmlns="http://www.w3.org/2000/svg">
<path d="M2.51361 6.75H47.7585C48.4624 6.75 49.0572 6.9675 49.5432 7.4025C50.0292 7.8375 50.2722 8.37 50.2722 9V45C50.2722 45.63 50.0292 46.1625 49.5432 46.5975C49.0572 47.0325 48.4624 47.25 47.7585 47.25H2.51361C1.8098 47.25 1.21491 47.0325 0.728946 46.5975C0.242982 46.1625 0 45.63 0 45V9C0 8.37 0.242982 7.8375 0.728946 7.4025C1.21491 6.9675 1.8098 6.75 2.51361 6.75ZM5.02722 11.25V42.75H45.2449V11.25H5.02722ZM16.3385 31.5H30.1633C30.4984 31.5 30.7917 31.3875 31.0431 31.1625C31.2944 30.9375 31.4201 30.675 31.4201 30.375C31.4201 30.075 31.2944 29.8125 31.0431 29.5875C30.7917 29.3625 30.4984 29.25 30.1633 29.25H20.1089C18.9694 29.25 17.922 28.995 16.9669 28.485C16.0117 27.975 15.2492 27.2925 14.6795 26.4375C14.1097 25.5825 13.8248 24.645 13.8248 23.625C13.8248 22.605 14.1097 21.6675 14.6795 20.8125C15.2492 19.9575 16.0117 19.275 16.9669 18.765C17.922 18.255 18.9694 18 20.1089 18H22.6225V13.5H27.6497V18H33.9337V22.5H20.1089C19.7737 22.5 19.4805 22.6125 19.2291 22.8375C18.9777 23.0625 18.8521 23.325 18.8521 23.625C18.8521 23.925 18.9777 24.1875 19.2291 24.4125C19.4805 24.6375 19.7737 24.75 20.1089 24.75H30.1633C31.3028 24.75 32.3501 25.005 33.3053 25.515C34.2605 26.025 35.0229 26.7075 35.5927 27.5625C36.1624 28.4175 36.4473 29.355 36.4473 30.375C36.4473 31.395 36.1624 32.3325 35.5927 33.1875C35.0229 34.0425 34.2605 34.725 33.3053 35.235C32.3501 35.745 31.3028 36 30.1633 36H27.6497V40.5H22.6225V36H16.3385V31.5Z" fill="#CB6F04"/>
</svg>
