<svg width="27" height="25" viewBox="0 0 27 25" fill="none" xmlns="http://www.w3.org/2000/svg">
<path d="M16.2942 23.4375H14.2574V21.3542C14.2574 20.7847 14.1217 20.2604 13.8501 19.7812C13.5785 19.3021 13.2085 18.9236 12.74 18.6458C12.2716 18.3681 11.759 18.2292 11.2023 18.2292H5.09195C4.53523 18.2292 4.02264 18.3681 3.55418 18.6458C3.08572 18.9236 2.7157 19.3021 2.44413 19.7812C2.17256 20.2604 2.03678 20.7847 2.03678 21.3542V23.4375H0V21.3542C0 20.4097 0.22744 19.5382 0.682321 18.7396C1.1372 17.941 1.75502 17.309 2.53579 16.8438C3.31655 16.3785 4.16861 16.1458 5.09195 16.1458H11.2023C12.1256 16.1458 12.9777 16.3785 13.7584 16.8438C14.5392 17.309 15.157 17.941 15.6119 18.7396C16.0668 19.5382 16.2942 20.4097 16.2942 21.3542V23.4375ZM8.14711 14.0625C7.04725 14.0625 6.02208 13.7778 5.07158 13.2083C4.14824 12.6528 3.415 11.9028 2.87186 10.9583C2.31514 9.98611 2.03678 8.9375 2.03678 7.8125C2.03678 6.6875 2.31514 5.63889 2.87186 4.66667C3.415 3.72222 4.14824 2.97222 5.07158 2.41667C6.02208 1.84722 7.04725 1.5625 8.14711 1.5625C9.24697 1.5625 10.2722 1.84722 11.2226 2.41667C12.146 2.97222 12.8792 3.72222 13.4224 4.66667C13.9791 5.63889 14.2574 6.6875 14.2574 7.8125C14.2574 8.9375 13.9791 9.98611 13.4224 10.9583C12.8792 11.9028 12.146 12.6528 11.2226 13.2083C10.2722 13.7778 9.24697 14.0625 8.14711 14.0625ZM8.14711 11.9792C8.88035 11.9792 9.55928 11.7917 10.1839 11.4167C10.8085 11.0417 11.3041 10.5347 11.6707 9.89583C12.0374 9.25694 12.2207 8.5625 12.2207 7.8125C12.2207 7.0625 12.0374 6.36806 11.6707 5.72917C11.3041 5.09028 10.8085 4.58333 10.1839 4.20833C9.55928 3.83333 8.88035 3.64583 8.14711 3.64583C7.41387 3.64583 6.73495 3.83333 6.11034 4.20833C5.48572 4.58333 4.99011 5.09028 4.62349 5.72917C4.25687 6.36806 4.07356 7.0625 4.07356 7.8125C4.07356 8.5625 4.25687 9.25694 4.62349 9.89583C4.99011 10.5347 5.48572 11.0417 6.11034 11.4167C6.73495 11.7917 7.41387 11.9792 8.14711 11.9792Z" fill="#CB6F04"/>
</svg>
