<svg width="15" height="15" viewBox="0 0 15 15" fill="none" xmlns="http://www.w3.org/2000/svg">
<g clip-path="url(#clip0_63_9723)">
<path d="M14.0898 2.10655H2.56318V1.91988C2.50095 1.48433 2.30651 1.11877 1.97984 0.823216C1.65318 0.52766 1.25651 0.379883 0.789844 0.379883H0.0898438V1.54655H0.789844C0.945399 1.54655 1.07762 1.59322 1.18651 1.68655C1.2954 1.77988 1.3654 1.90433 1.39651 2.05988L2.32984 9.89988C2.36095 10.3665 2.53984 10.7399 2.86651 11.0199C3.19318 11.2999 3.58984 11.4554 4.05651 11.4865H11.7565V10.2732H4.05651C3.90095 10.2732 3.76873 10.2265 3.65984 10.1332C3.55095 10.0399 3.48095 9.91544 3.44984 9.75988L3.40318 9.10655H12.8298L14.0898 2.10655ZM11.8498 7.93988H3.26318L2.70318 3.27322H12.6898L11.8498 7.93988ZM3.02984 13.2132C2.99873 13.5243 3.09984 13.7965 3.33318 14.0299C3.56651 14.2632 3.84651 14.3799 4.17318 14.3799C4.49984 14.3799 4.77207 14.2632 4.98984 14.0299C5.20762 13.7965 5.32429 13.5243 5.33984 13.2132C5.3554 12.9021 5.24651 12.6299 5.01318 12.3965C4.77984 12.1632 4.49984 12.0465 4.17318 12.0465C3.84651 12.0465 3.57429 12.1632 3.35651 12.3965C3.13873 12.6299 3.02984 12.9021 3.02984 13.2132ZM8.86318 13.2132C8.83207 13.5243 8.93318 13.7965 9.16651 14.0299C9.39984 14.2632 9.67984 14.3799 10.0065 14.3799C10.3332 14.3799 10.6054 14.2632 10.8232 14.0299C11.041 13.7965 11.1576 13.5243 11.1732 13.2132C11.1887 12.9021 11.0798 12.6299 10.8465 12.3965C10.6132 12.1632 10.3332 12.0465 10.0065 12.0465C9.67984 12.0465 9.40762 12.1632 9.18984 12.3965C8.97207 12.6299 8.86318 12.9021 8.86318 13.2132Z" fill="white"/>
</g>
<defs>
<clipPath id="clip0_63_9723">
<rect width="14" height="14" fill="white" transform="matrix(1 0 0 -1 0.0898438 14.3799)"/>
</clipPath>
</defs>
</svg>
