<svg width="26" height="27" viewBox="0 0 26 27" fill="none" xmlns="http://www.w3.org/2000/svg">
<g clip-path="url(#clip0_320_107)">
<path d="M2.26953 13.5625V3.0625H0.519531V1.3125H3.14453C3.38953 1.3125 3.59661 1.39708 3.76578 1.56625C3.93495 1.73542 4.01953 1.9425 4.01953 2.1875V12.6875H14.9045L16.6545 5.6875H5.76953V3.9375H17.7745C18.0195 3.9375 18.2266 4.02208 18.3958 4.19125C18.5649 4.36042 18.6495 4.5675 18.6495 4.8125C18.6495 4.8825 18.6379 4.9525 18.6145 5.0225L16.427 13.7725C16.3804 13.9708 16.2783 14.1312 16.1208 14.2537C15.9633 14.3762 15.7854 14.4375 15.587 14.4375H3.14453C2.89953 14.4375 2.69245 14.3529 2.52328 14.1838C2.35411 14.0146 2.26953 13.8075 2.26953 13.5625ZM4.01953 19.6875C3.70453 19.6875 3.41286 19.6088 3.14453 19.4513C2.8762 19.2937 2.66328 19.0808 2.50578 18.8125C2.34828 18.5442 2.26953 18.2525 2.26953 17.9375C2.26953 17.6225 2.34828 17.3308 2.50578 17.0625C2.66328 16.7942 2.8762 16.5812 3.14453 16.4237C3.41286 16.2662 3.70453 16.1875 4.01953 16.1875C4.33453 16.1875 4.6262 16.2662 4.89453 16.4237C5.16286 16.5812 5.37578 16.7942 5.53328 17.0625C5.69078 17.3308 5.76953 17.6225 5.76953 17.9375C5.76953 18.2525 5.69078 18.5442 5.53328 18.8125C5.37578 19.0808 5.16286 19.2937 4.89453 19.4513C4.6262 19.6088 4.33453 19.6875 4.01953 19.6875ZM14.5195 19.6875C14.2045 19.6875 13.9129 19.6088 13.6445 19.4513C13.3762 19.2937 13.1633 19.0808 13.0058 18.8125C12.8483 18.5442 12.7695 18.2525 12.7695 17.9375C12.7695 17.6225 12.8483 17.3308 13.0058 17.0625C13.1633 16.7942 13.3762 16.5812 13.6445 16.4237C13.9129 16.2662 14.2045 16.1875 14.5195 16.1875C14.8345 16.1875 15.1262 16.2662 15.3945 16.4237C15.6629 16.5812 15.8758 16.7942 16.0333 17.0625C16.1908 17.3308 16.2695 17.6225 16.2695 17.9375C16.2695 18.2525 16.1908 18.5442 16.0333 18.8125C15.8758 19.0808 15.6629 19.2937 15.3945 19.4513C15.1262 19.6088 14.8345 19.6875 14.5195 19.6875Z" fill="#CB6F04"/>
</g>
<defs>
<clipPath id="clip0_320_107">
<rect width="21.48" height="21" fill="white" transform="matrix(1 0 0 -1 0.519531 21)"/>
</clipPath>
</defs>
</svg>
