<svg width="35" height="36" viewBox="0 0 35 36" fill="none" xmlns="http://www.w3.org/2000/svg">
<rect x="0.5" y="1.12988" width="34" height="34" rx="4.5" fill="#CB6F04"/>
<rect x="0.5" y="1.12988" width="34" height="34" rx="4.5" stroke="#CB6F04"/>
<g clip-path="url(#clip0_24_16877)">
<path d="M18 16.7132H21.1875L20.8333 18.1299H18V24.5049H16.5833V18.1299H13.75V16.7132H16.5833V15.3815C16.5833 14.7865 16.6117 14.3238 16.6683 13.9932C16.725 13.7193 16.8194 13.4549 16.9517 13.1999C17.2067 12.7371 17.5656 12.3829 18.0283 12.1374C18.2739 11.9957 18.5383 11.9013 18.8217 11.854C19.1522 11.7879 19.615 11.7549 20.21 11.7549C20.5783 11.7549 20.8994 11.7879 21.1733 11.854V13.1715H20.21C19.7567 13.1715 19.4285 13.1857 19.2254 13.214C19.0224 13.2424 18.8453 13.299 18.6942 13.384C18.4769 13.4974 18.3117 13.6579 18.1983 13.8657C18.1228 14.0168 18.0708 14.1939 18.0425 14.397C18.0142 14.6 17.9953 14.9282 17.9858 15.3815V16.7132H18Z" fill="white"/>
</g>
<defs>
<clipPath id="clip0_24_16877">
<rect width="17.48" height="17" fill="white" transform="matrix(1 0 0 -1 13.75 26.6299)"/>
</clipPath>
</defs>
</svg>
