<svg width="31" height="25" viewBox="0 0 31 25" fill="none" xmlns="http://www.w3.org/2000/svg">
<path d="M14.7666 3.85417C15.785 3.85417 16.722 4.125 17.5774 4.66667C18.4328 5.20833 19.105 5.94444 19.5938 6.875C20.1098 7.84722 20.3678 8.92361 20.3678 10.1042C20.3678 11.7153 20.0012 13.2639 19.2679 14.75C18.6433 16.0139 17.7539 17.2292 16.5997 18.3958C15.7036 19.3125 14.6376 20.2083 13.402 21.0833C12.7095 21.5694 11.7997 22.1528 10.6727 22.8333L10.1839 23.125L9.69507 22.8333C8.56805 22.1528 7.65829 21.5694 6.96578 21.0833C5.73014 20.2083 4.66422 19.3125 3.76804 18.3958C2.61387 17.2292 1.72447 16.0139 1.09986 14.75C0.36662 13.2639 0 11.7153 0 10.1042C0 8.92361 0.257992 7.84722 0.773976 6.875C1.2628 5.94444 1.93494 5.20833 2.79039 4.66667C3.64583 4.125 4.58275 3.85417 5.60114 3.85417C6.48374 3.86806 7.35956 4.09028 8.22859 4.52083C8.96183 4.88194 9.61359 5.35417 10.1839 5.9375C10.7542 5.35417 11.406 4.88194 12.1392 4.52083C13.0082 4.07639 13.884 3.85417 14.7666 3.85417ZM11.1412 20.125C12.0645 19.5278 12.886 18.9375 13.6057 18.3542C15.1536 17.0903 16.3214 15.7917 17.1089 14.4583C17.9237 13.0694 18.331 11.625 18.331 10.125C18.331 9.31944 18.1749 8.59722 17.8625 7.95833C17.5502 7.31944 17.1225 6.82639 16.5794 6.47917C16.0362 6.13194 15.432 5.95139 14.7666 5.9375C14.2235 5.9375 13.6736 6.07292 13.1169 6.34375C12.5601 6.61458 12.0645 6.97222 11.63 7.41667L10.1839 8.89583L8.73778 7.41667C8.30327 6.97222 7.80765 6.61458 7.25093 6.34375C6.69421 6.07292 6.14428 5.9375 5.60114 5.9375C4.94937 5.9375 4.35192 6.11806 3.80878 6.47917C3.26563 6.84028 2.83452 7.33681 2.51542 7.96875C2.19633 8.60069 2.03678 9.31944 2.03678 10.125C2.03678 11.625 2.44413 13.0694 3.25885 14.4583C4.0464 15.7917 5.21415 17.0903 6.7621 18.3542C7.48177 18.9375 8.30327 19.5278 9.22661 20.125C9.51175 20.3056 9.83085 20.5 10.1839 20.7083C10.5369 20.5 10.856 20.3056 11.1412 20.125Z" fill="#CB6F04"/>
</svg>
