<svg width="35" height="36" viewBox="0 0 35 36" fill="none" xmlns="http://www.w3.org/2000/svg">
<rect x="0.5" y="1.12988" width="34" height="34" rx="4.5" fill="#CB6F04"/>
<rect x="0.5" y="1.12988" width="34" height="34" rx="4.5" stroke="#CB6F04"/>
<g clip-path="url(#clip0_24_16886)">
<path d="M16.8333 16.0048C16.4461 16.0048 16.0896 16.0992 15.7638 16.2881C15.4379 16.477 15.1806 16.7344 14.9917 17.0602C14.8028 17.3861 14.7083 17.7426 14.7083 18.1298C14.7083 18.517 14.8028 18.8736 14.9917 19.1994C15.1806 19.5252 15.4379 19.7826 15.7638 19.9715C16.0896 20.1604 16.4461 20.2548 16.8333 20.2548C17.2206 20.2548 17.5771 20.1604 17.9029 19.9715C18.2288 19.7826 18.4861 19.5252 18.675 19.1994C18.8639 18.8736 18.9583 18.517 18.9583 18.1298C18.9583 17.7426 18.8639 17.3861 18.675 17.0602C18.4861 16.7344 18.2288 16.477 17.9029 16.2881C17.5771 16.0992 17.2206 16.0048 16.8333 16.0048ZM16.8333 14.5881C17.4756 14.5881 18.0682 14.7463 18.6112 15.0627C19.1543 15.3791 19.584 15.8088 19.9004 16.3519C20.2168 16.8949 20.375 17.4876 20.375 18.1298C20.375 18.772 20.2168 19.3647 19.9004 19.9077C19.584 20.4508 19.1543 20.8805 18.6112 21.1969C18.0682 21.5133 17.4756 21.6715 16.8333 21.6715C16.1911 21.6715 15.5985 21.5133 15.0554 21.1969C14.5124 20.8805 14.0826 20.4508 13.7663 19.9077C13.4499 19.3647 13.2917 18.772 13.2917 18.1298C13.2917 17.4876 13.4499 16.8949 13.7663 16.3519C14.0826 15.8088 14.5124 15.3791 15.0554 15.0627C15.5985 14.7463 16.1911 14.5881 16.8333 14.5881ZM21.4375 14.404C21.4375 14.6495 21.3501 14.8597 21.1754 15.0344C21.0007 15.2091 20.7929 15.2965 20.5521 15.2965C20.3113 15.2965 20.1035 15.2091 19.9288 15.0344C19.754 14.8597 19.6667 14.6519 19.6667 14.4111C19.6667 14.1702 19.754 13.9624 19.9288 13.7877C20.1035 13.613 20.3113 13.5256 20.5521 13.5256C20.7929 13.5256 21.0007 13.613 21.1754 13.7877C21.3501 13.9624 21.4375 14.1679 21.4375 14.404ZM16.8333 12.4631C15.9644 12.4631 15.3742 12.4655 15.0625 12.4702C14.7508 12.4749 14.3919 12.4867 13.9858 12.5056C13.4758 12.5245 13.0508 12.6001 12.7108 12.7323C12.4181 12.8456 12.1607 13.0133 11.9388 13.2352C11.7168 13.4572 11.5492 13.7145 11.4358 14.0073C11.3036 14.3473 11.2281 14.7723 11.2092 15.2823C11.1903 15.6695 11.1785 16.0166 11.1738 16.3236C11.169 16.6305 11.1667 17.2326 11.1667 18.1298C11.1667 18.9987 11.169 19.589 11.1738 19.9006C11.1785 20.2123 11.1903 20.5712 11.2092 20.9773C11.2281 21.4873 11.3036 21.9123 11.4358 22.2523C11.5492 22.5451 11.7168 22.8024 11.9388 23.0244C12.1607 23.2463 12.4181 23.4092 12.7108 23.5131C13.0508 23.6548 13.4758 23.7351 13.9858 23.754C14.3731 23.7729 14.7201 23.7847 15.0271 23.7894C15.334 23.7941 15.9361 23.7965 16.8333 23.7965C17.7022 23.7965 18.2925 23.7941 18.6042 23.7894C18.9158 23.7847 19.2747 23.7729 19.6808 23.754C20.1908 23.7351 20.6158 23.6595 20.9558 23.5273C21.2486 23.414 21.506 23.2463 21.7279 23.0244C21.9499 22.8024 22.1128 22.5451 22.2167 22.2523C22.3583 21.9123 22.4386 21.4873 22.4575 20.9773C22.4764 20.5901 22.4882 20.243 22.4929 19.9361C22.4976 19.6291 22.5 19.027 22.5 18.1298C22.5 17.2609 22.4976 16.6706 22.4929 16.359C22.4882 16.0473 22.4764 15.6884 22.4575 15.2823C22.4386 14.7723 22.3631 14.3473 22.2308 14.0073C22.1175 13.7145 21.9499 13.4572 21.7279 13.2352C21.506 13.0133 21.2486 12.8456 20.9558 12.7323C20.6158 12.6001 20.1908 12.5245 19.6808 12.5056C19.2936 12.4867 18.9465 12.4749 18.6396 12.4702C18.3326 12.4655 17.7306 12.4631 16.8333 12.4631ZM16.8333 11.0465C17.7589 11.0465 18.3917 11.0512 18.7317 11.0606C19.015 11.0606 19.355 11.0701 19.7517 11.089C20.4128 11.1173 20.9842 11.2259 21.4658 11.4148C21.9475 11.6037 22.3678 11.8776 22.7267 12.2365C23.0856 12.5954 23.3594 13.0156 23.5483 13.4973C23.7372 13.979 23.8458 14.5504 23.8742 15.2115C23.8931 15.6176 23.9025 15.9576 23.9025 16.2315C23.9119 16.5904 23.9167 17.2279 23.9167 18.144C23.9167 19.0601 23.9119 19.6881 23.9025 20.0281C23.9025 20.3115 23.8931 20.6515 23.8742 21.0481C23.8458 21.7092 23.7372 22.2806 23.5483 22.7623C23.3594 23.244 23.0856 23.6642 22.7267 24.0231C22.3678 24.382 21.9475 24.6559 21.4658 24.8448C20.9842 25.0337 20.4128 25.1423 19.7517 25.1706C19.3456 25.1895 19.0056 25.199 18.7317 25.199C18.3728 25.2084 17.7353 25.2131 16.8192 25.2131C15.9031 25.2131 15.275 25.2084 14.935 25.199C14.6517 25.199 14.3117 25.1895 13.915 25.1706C13.2539 25.1423 12.6825 25.0337 12.2008 24.8448C11.7192 24.6559 11.2989 24.382 10.94 24.0231C10.5811 23.6642 10.3072 23.244 10.1183 22.7623C9.92944 22.2806 9.82083 21.7092 9.7925 21.0481C9.77361 20.642 9.76417 20.302 9.76417 20.0281C9.75472 19.6692 9.75 19.0317 9.75 18.1156C9.75 17.1995 9.75472 16.5715 9.76417 16.2315C9.76417 15.9481 9.77361 15.6081 9.7925 15.2115C9.82083 14.5504 9.92944 13.979 10.1183 13.4973C10.3072 13.0156 10.5811 12.5954 10.94 12.2365C11.2989 11.8776 11.7192 11.6037 12.2008 11.4148C12.6825 11.2259 13.2539 11.1173 13.915 11.089C14.3211 11.0701 14.6611 11.0606 14.935 11.0606C15.2939 11.0512 15.9267 11.0465 16.8333 11.0465Z" fill="white"/>
</g>
<defs>
<clipPath id="clip0_24_16886">
<rect width="17.48" height="17" fill="white" transform="matrix(1 0 0 -1 9.75 26.6299)"/>
</clipPath>
</defs>
</svg>
