<svg width="16" height="15" viewBox="0 0 16 15" fill="none" xmlns="http://www.w3.org/2000/svg">
<path d="M9.41667 5.83333H6.08333V9.16667H9.41667V5.83333ZM11.0833 5.83333V9.16667H13.5833V5.83333H11.0833ZM9.41667 13.3333V10.8333H6.08333V13.3333H9.41667ZM11.0833 13.3333H13.5833V10.8333H11.0833V13.3333ZM9.41667 1.66667H6.08333V4.16667H9.41667V1.66667ZM11.0833 1.66667V4.16667H13.5833V1.66667H11.0833ZM4.41667 5.83333H1.91667V9.16667H4.41667V5.83333ZM4.41667 13.3333V10.8333H1.91667V13.3333H4.41667ZM4.41667 1.66667H1.91667V4.16667H4.41667V1.66667ZM1.08333 -9.53674e-07H14.4167C14.65 -9.53674e-07 14.8472 0.080555 15.0083 0.241666C15.1694 0.402777 15.25 0.599999 15.25 0.833333V14.1667C15.25 14.4 15.1694 14.5972 15.0083 14.7583C14.8472 14.9194 14.65 15 14.4167 15H1.08333C0.85 15 0.652778 14.9194 0.491667 14.7583C0.330556 14.5972 0.25 14.4 0.25 14.1667V0.833333C0.25 0.599999 0.330556 0.402777 0.491667 0.241666C0.652778 0.080555 0.85 -9.53674e-07 1.08333 -9.53674e-07Z" fill="white"/>
</svg>
