<svg width="45" height="45" viewBox="0 0 45 45" fill="none" xmlns="http://www.w3.org/2000/svg">
<path d="M0 0H40C42.7614 0 45 2.23858 45 5V40C45 42.7614 42.7614 45 40 45H0V0Z" fill="#CB6F04"/>
<g clip-path="url(#clip0_214_2700)">
<path d="M24.6067 24.6018L27.1033 27.0984L26.275 27.9268L23.7783 25.4301C23.3194 25.7956 22.8178 26.0756 22.2733 26.2701C21.6978 26.4723 21.1067 26.5734 20.5 26.5734C19.5511 26.5734 18.6683 26.3362 17.8517 25.8618C17.0583 25.3951 16.4322 24.7651 15.9733 23.9718C15.4911 23.1551 15.25 22.2723 15.25 21.3234C15.25 20.3745 15.4911 19.4918 15.9733 18.6751C16.4322 17.8818 17.0583 17.2556 17.8517 16.7968C18.6683 16.3145 19.5511 16.0734 20.5 16.0734C21.4489 16.0734 22.3317 16.3145 23.1483 16.7968C23.9417 17.2556 24.5717 17.8818 25.0383 18.6751C25.5128 19.4918 25.75 20.3745 25.75 21.3234C25.75 21.9301 25.6489 22.5212 25.4467 23.0968C25.2522 23.6412 24.9722 24.1429 24.6067 24.6018ZM23.4283 24.1701C23.7939 23.7968 24.0778 23.369 24.28 22.8868C24.4822 22.389 24.5833 21.8679 24.5833 21.3234C24.5833 20.5845 24.3967 19.8962 24.0233 19.2584C23.6656 18.644 23.1794 18.1579 22.565 17.8001C21.9272 17.4268 21.2389 17.2401 20.5 17.2401C19.7611 17.2401 19.0728 17.4268 18.435 17.8001C17.8206 18.1579 17.3344 18.644 16.9767 19.2584C16.6033 19.8962 16.4167 20.5845 16.4167 21.3234C16.4167 22.0623 16.6033 22.7506 16.9767 23.3884C17.3344 24.0029 17.8206 24.489 18.435 24.8468C19.0728 25.2201 19.7611 25.4068 20.5 25.4068C21.0444 25.4068 21.5656 25.3056 22.0633 25.1034C22.5456 24.9012 22.9733 24.6173 23.3467 24.2518L23.4283 24.1701Z" fill="white"/>
</g>
<defs>
<clipPath id="clip0_214_2700">
<rect width="14.48" height="14" fill="white" transform="matrix(1 0 0 -1 15.25 29)"/>
</clipPath>
</defs>
</svg>
